<?xml version="1.0" encoding="UTF-8" standalone="no"?>
<svg
   xmlns:dc="http://purl.org/dc/elements/1.1/"
   xmlns:cc="http://creativecommons.org/ns#"
   xmlns:rdf="http://www.w3.org/1999/02/22-rdf-syntax-ns#"
   xmlns:svg="http://www.w3.org/2000/svg"
   xmlns="http://www.w3.org/2000/svg"
   xmlns:sodipodi="http://sodipodi.sourceforge.net/DTD/sodipodi-0.dtd"
   xmlns:inkscape="http://www.inkscape.org/namespaces/inkscape"
   width="45cm"
   height="45cm"
   viewBox="0 0 45.000001 44.999995"
   version="1.1"
   id="svg8"
   inkscape:version="1.0.1 (3bc2e813f5, 2020-09-07)"
   sodipodi:docname="tarcza_kontury.svg">
  <defs
     id="defs2" />
  <sodipodi:namedview
     id="base"
     pagecolor="#ffffff"
     bordercolor="#666666"
     borderopacity="1.0"
     inkscape:pageopacity="0.0"
     inkscape:pageshadow="2"
     inkscape:zoom="0.45032083"
     inkscape:cx="531.06613"
     inkscape:cy="771.99986"
     inkscape:document-units="cm"
     inkscape:current-layer="layer1"
     inkscape:document-rotation="0"
     showgrid="false"
     inkscape:window-width="1920"
     inkscape:window-height="1051"
     inkscape:window-x="1591"
     inkscape:window-y="-9"
     inkscape:window-maximized="1"
     inkscape:snap-global="true"
     units="cm"
     inkscape:snap-bbox="false"
     inkscape:snap-bbox-midpoints="true"
     inkscape:object-paths="true"
     inkscape:snap-midpoints="true"
     inkscape:snap-bbox-edge-midpoints="true"
     inkscape:snap-smooth-nodes="true"
     inkscape:object-nodes="true"
     inkscape:snap-others="true"
     inkscape:snap-nodes="true"
     inkscape:snap-center="true"
     inkscape:snap-intersection-paths="true"
     inkscape:bbox-paths="true"
     inkscape:bbox-nodes="true"
     inkscape:snap-object-midpoints="true"
     inkscape:snap-text-baseline="true">
    <inkscape:grid
       type="xygrid"
       id="grid1046" />
  </sodipodi:namedview>
  <metadata
     id="metadata5">
    <rdf:RDF>
      <cc:Work
         rdf:about="">
        <dc:format>image/svg+xml</dc:format>
        <dc:type
           rdf:resource="http://purl.org/dc/dcmitype/StillImage" />
        <dc:title></dc:title>
      </cc:Work>
    </rdf:RDF>
  </metadata>
  <g
     inkscape:label="Warstwa 1"
     inkscape:groupmode="layer"
     id="layer1">
    <g
       id="g885"
       transform="translate(-2.4867708,-2.4867708)">
      <circle
         style="fill:none;stroke:#000000;stroke-width:0.0264583;stroke-opacity:1"
         id="path1005"
         cx="25"
         cy="25"
         r="22.5" />
      <circle
         style="fill:none;stroke:#000000;stroke-width:0.0264583;stroke-opacity:1"
         id="path1007"
         cx="25"
         cy="25"
         r="17" />
      <circle
         style="fill:none;stroke:#000000;stroke-width:0.0264583;stroke-opacity:1"
         id="path1009"
         cx="25"
         cy="25"
         r="16.200001" />
      <circle
         style="fill:none;stroke:#000000;stroke-width:0.0264583;stroke-opacity:1"
         id="path1011"
         cx="25"
         cy="25"
         r="10.74" />
      <circle
         style="fill:none;stroke:#000000;stroke-width:0.0264583;stroke-opacity:1"
         id="path1011-1"
         cx="25"
         cy="25"
         r="9.9399996" />
      <circle
         style="fill:none;stroke:#000000;stroke-width:0.0264583;stroke-opacity:1"
         id="path1011-9"
         cx="25"
         cy="25"
         r="1.59" />
      <circle
         style="fill:none;stroke:#000000;stroke-width:0.0264583;stroke-opacity:1"
         id="path1011-19"
         cx="25"
         cy="25"
         r="0.63499999" />
      <path
         style="fill:none;stroke:#000000;stroke-width:0.0318445px;stroke-linecap:butt;stroke-linejoin:miter;stroke-opacity:1"
         d="m 26.570424,25.248731 15.220278,2.410655"
         id="path1168"
         sodipodi:nodetypes="cc" />
      <path
         style="fill:none;stroke:#000000;stroke-width:0.0318445px;stroke-linecap:butt;stroke-linejoin:miter;stroke-opacity:1"
         d="m 26.4167,25.721845 13.730412,6.995993"
         id="path1168-0"
         sodipodi:nodetypes="cc" />
      <path
         style="fill:none;stroke:#000000;stroke-width:0.0318445px;stroke-linecap:butt;stroke-linejoin:miter;stroke-opacity:1"
         d="M 26.1243,26.1243 37.020817,37.020816"
         id="path1168-0-4"
         sodipodi:nodetypes="cc" />
      <path
         style="fill:none;stroke:#000000;stroke-width:0.0318445px;stroke-linecap:butt;stroke-linejoin:miter;stroke-opacity:1"
         d="m 25.721845,26.4167 6.995994,13.730412"
         id="path1168-0-6"
         sodipodi:nodetypes="cc" />
      <path
         style="fill:none;stroke:#000000;stroke-width:0.0318445px;stroke-linecap:butt;stroke-linejoin:miter;stroke-opacity:1"
         d="m 25.248731,26.570424 2.410656,15.220278"
         id="path1168-0-6-5"
         sodipodi:nodetypes="cc" />
      <path
         style="fill:none;stroke:#000000;stroke-width:0.0318445px;stroke-linecap:butt;stroke-linejoin:miter;stroke-opacity:1"
         d="M 24.751269,26.570425 22.340615,41.790703"
         id="path1168-0-6-5-5"
         sodipodi:nodetypes="cc" />
      <path
         style="fill:none;stroke:#000000;stroke-width:0.0318445px;stroke-linecap:butt;stroke-linejoin:miter;stroke-opacity:1"
         d="M 24.278155,26.4167 17.282161,40.147113"
         id="path1168-0-6-5-5-1"
         sodipodi:nodetypes="cc" />
      <path
         style="fill:none;stroke:#000000;stroke-width:0.0318445px;stroke-linecap:butt;stroke-linejoin:miter;stroke-opacity:1"
         d="M 23.8757,26.1243 12.979183,37.020818"
         id="path1168-0-6-5-5-1-2"
         sodipodi:nodetypes="cc" />
      <path
         style="fill:none;stroke:#000000;stroke-width:0.0318445px;stroke-linecap:butt;stroke-linejoin:miter;stroke-opacity:1"
         d="M 23.5833,25.721845 9.852886,32.717841"
         id="path1168-0-6-5-5-1-2-6"
         sodipodi:nodetypes="cc" />
      <path
         style="fill:none;stroke:#000000;stroke-width:0.0318445px;stroke-linecap:butt;stroke-linejoin:miter;stroke-opacity:1"
         d="M 23.429576,25.248731 8.209294,27.659387"
         id="path1168-0-6-5-5-1-2-6-1"
         sodipodi:nodetypes="cc" />
      <path
         style="fill:none;stroke:#000000;stroke-width:0.0318445px;stroke-linecap:butt;stroke-linejoin:miter;stroke-opacity:1"
         d="M 23.429576,24.751269 8.209294,22.340613"
         id="path1168-0-6-5-5-1-2-6-1-2"
         sodipodi:nodetypes="cc" />
      <path
         style="fill:none;stroke:#000000;stroke-width:0.0318445px;stroke-linecap:butt;stroke-linejoin:miter;stroke-opacity:1"
         d="M 23.5833,24.278155 9.852886,17.282159"
         id="path1168-0-6-5-5-1-2-6-1-2-3"
         sodipodi:nodetypes="cc" />
      <path
         style="fill:none;stroke:#000000;stroke-width:0.0318445px;stroke-linecap:butt;stroke-linejoin:miter;stroke-opacity:1"
         d="M 23.8757,23.8757 12.979181,12.979181"
         id="path1168-0-6-5-5-1-2-6-1-2-3-1"
         sodipodi:nodetypes="cc" />
      <path
         style="fill:none;stroke:#000000;stroke-width:0.0318445px;stroke-linecap:butt;stroke-linejoin:miter;stroke-opacity:1"
         d="M 24.278155,23.5833 17.282158,9.852885"
         id="path1168-0-6-5-5-1-2-6-1-2-3-1-2"
         sodipodi:nodetypes="cc" />
      <path
         style="fill:none;stroke:#000000;stroke-width:0.0318445px;stroke-linecap:butt;stroke-linejoin:miter;stroke-opacity:1"
         d="M 24.751269,23.429576 22.340612,8.209293"
         id="path1168-0-6-5-5-1-2-6-1-2-3-1-2-2"
         sodipodi:nodetypes="cc" />
      <path
         style="fill:none;stroke:#000000;stroke-width:0.0318445px;stroke-linecap:butt;stroke-linejoin:miter;stroke-opacity:1"
         d="M 25.248731,23.429575 27.659386,8.209293"
         id="path1168-0-6-5-5-1-2-6-1-2-3-1-2-2-5"
         sodipodi:nodetypes="cc" />
      <path
         style="fill:none;stroke:#000000;stroke-width:0.0318445px;stroke-linecap:butt;stroke-linejoin:miter;stroke-opacity:1"
         d="M 25.721845,23.583299 32.717839,9.852883"
         id="path1168-0-6-5-5-1-2-6-1-2-3-1-2-2-5-2"
         sodipodi:nodetypes="cc" />
      <path
         style="fill:none;stroke:#000000;stroke-width:0.0318445px;stroke-linecap:butt;stroke-linejoin:miter;stroke-opacity:1"
         d="M 26.1243,23.8757 37.020817,12.979178"
         id="path1168-0-6-5-5-1-2-6-1-2-3-1-2-2-5-2-5"
         sodipodi:nodetypes="cc" />
      <path
         style="fill:none;stroke:#000000;stroke-width:0.0318445px;stroke-linecap:butt;stroke-linejoin:miter;stroke-opacity:1"
         d="M 26.4167,24.278155 40.147115,17.282156"
         id="path1168-0-6-5-5-1-2-6-1-2-3-1-2-2-5-2-5-3"
         sodipodi:nodetypes="cc" />
      <path
         style="fill:none;stroke:#000000;stroke-width:0.0318445px;stroke-linecap:butt;stroke-linejoin:miter;stroke-opacity:1"
         d="M 26.570424,24.751269 41.790707,22.34061"
         id="path1168-0-6-5-5-1-2-6-1-2-3-1-2-2-5-2-5-3-5"
         sodipodi:nodetypes="cc" />
    </g>
    <path
       d="m 22.22605,3.0567705 h -0.08096 c -0.01619,0.097151 -0.03886,0.2396394 -0.07124,0.2882149 -0.02267,0.025907 -0.236401,0.025907 -0.307645,0.025907 h -0.582907 l 0.343267,-0.3335521 c 0.505186,-0.4468951 0.699488,-0.621767 0.699488,-0.945604 0,-0.3691742 -0.291453,-0.6282438 -0.686534,-0.6282438 -0.365936,0 -0.605575,0.29793 -0.605575,0.586145 0,0.1813487 0.161918,0.1813487 0.171633,0.1813487 0.05505,0 0.168396,-0.03886 0.168396,-0.1716336 0,-0.084198 -0.05829,-0.1683953 -0.171634,-0.1683953 -0.02591,0 -0.03238,0 -0.0421,0.00324 0.07448,-0.210494 0.249355,-0.3303137 0.43718,-0.3303137 0.294692,0 0.433942,0.2623079 0.433942,0.5278543 0,0.2590696 -0.161919,0.5149008 -0.340029,0.7156797 l -0.621767,0.6930112 c -0.03562,0.035622 -0.03562,0.042099 -0.03562,0.1198197 h 1.201435 z"
       style="fill:#000000;font-size:3.23837px;line-height:1.25;font-family:'Latin Modern Math';-inkscape-font-specification:'Latin Modern Math';letter-spacing:0.211667px;word-spacing:0px;stroke-width:0.0809594"
       id="path76" />
    <path
       d="m 24.092518,2.5839685 c 0,-0.2590696 -0.01619,-0.5181392 -0.129535,-0.7577786 -0.148965,-0.3108835 -0.414511,-0.3626974 -0.550522,-0.3626974 -0.194303,0 -0.430704,0.084198 -0.563477,0.385366 -0.103628,0.2234476 -0.119819,0.4760404 -0.119819,0.73511 0,0.2428778 0.01295,0.534331 0.145726,0.7804472 0.13925,0.2623079 0.375651,0.3270753 0.534331,0.3270753 0.174872,0 0.420988,-0.068006 0.563477,-0.3756509 0.103627,-0.2234475 0.119819,-0.4760404 0.119819,-0.7318716 z m -0.268784,-0.03886 c 0,0.2428777 0,0.4630869 -0.03562,0.6703425 -0.04857,0.3076452 -0.233162,0.4047963 -0.378889,0.4047963 -0.126296,0 -0.31736,-0.080959 -0.375651,-0.3918428 -0.03562,-0.1943022 -0.03562,-0.4922322 -0.03562,-0.683296 0,-0.2072557 0,-0.4209881 0.02591,-0.5958601 0.06153,-0.385366 0.304407,-0.4145114 0.385366,-0.4145114 0.106866,0 0.320599,0.058291 0.382128,0.3788893 0.03238,0.1813487 0.03238,0.4274649 0.03238,0.6314822 z"
       style="fill:#000000;font-size:3.23837px;line-height:1.25;font-family:'Latin Modern Math';-inkscape-font-specification:'Latin Modern Math';letter-spacing:0.211667px;word-spacing:0px;stroke-width:0.0809594"
       id="path78" />
    <path
       d="M 29.01385,4.5695925 V 4.469203 h -0.103628 c -0.291453,0 -0.301168,-0.035622 -0.301168,-0.1554417 V 2.4970357 c 0,-0.077721 0,-0.084198 -0.07448,-0.084198 -0.200779,0.2072557 -0.485755,0.2072557 -0.589383,0.2072557 v 0.1003894 c 0.06477,0 0.255831,0 0.424226,-0.084198 v 1.6774757 c 0,0.1165813 -0.0097,0.1554417 -0.301168,0.1554417 h -0.103628 v 0.1003895 c 0.113343,-0.00972 0.395081,-0.00972 0.524616,-0.00972 0.129535,0 0.411273,0 0.524616,0.00972 z"
       style="fill:#000000;font-size:3.23837px;line-height:1.25;font-family:'Latin Modern Math';-inkscape-font-specification:'Latin Modern Math';letter-spacing:0.211667px;word-spacing:0px;stroke-width:0.0809593"
       id="path81" />
    <path
       d="M 34.000477,7.588954 V 7.4885645 H 33.89685 c -0.291454,0 -0.301169,-0.035622 -0.301169,-0.1554418 V 5.5163972 c 0,-0.077721 0,-0.084198 -0.07448,-0.084198 -0.200779,0.2072557 -0.485756,0.2072557 -0.589384,0.2072557 v 0.1003894 c 0.06477,0 0.255832,0 0.424227,-0.084198 v 1.6774756 c 0,0.1165814 -0.0097,0.1554418 -0.301169,0.1554418 H 32.951246 V 7.588954 c 0.113343,-0.00972 0.395081,-0.00972 0.524616,-0.00972 0.129534,0 0.411273,0 0.524615,0.00972 z"
       style="fill:#000000;font-size:3.23837px;line-height:1.25;font-family:'Latin Modern Math';-inkscape-font-specification:'Latin Modern Math';letter-spacing:0.211667px;word-spacing:0px;stroke-width:0.0809593"
       id="path84" />
    <path
       d="m 35.954381,7.0449078 c 0,-0.1165813 -0.03562,-0.2623079 -0.15868,-0.3983195 -0.06153,-0.068006 -0.113343,-0.1003894 -0.320598,-0.2299242 0.233162,-0.1198197 0.391842,-0.288215 0.391842,-0.5019474 0,-0.29793 -0.288215,-0.4825171 -0.582906,-0.4825171 -0.323837,0 -0.586145,0.2396394 -0.586145,0.5408078 0,0.058291 0.0065,0.2040173 0.142488,0.3562207 0.03562,0.03886 0.155442,0.1198197 0.236401,0.1748719 -0.187825,0.093913 -0.466325,0.2752615 -0.466325,0.5958601 0,0.3432672 0.330314,0.560238 0.670342,0.560238 0.365936,0 0.673581,-0.2687847 0.673581,-0.6152903 z M 35.724457,5.9147167 c 0,0.1845871 -0.126296,0.3400289 -0.320599,0.4533718 L 35.002301,6.1090189 c -0.148965,-0.097151 -0.161919,-0.2072557 -0.161919,-0.262308 0,-0.1975405 0.210494,-0.3335521 0.440418,-0.3335521 0.236401,0 0.443657,0.1683953 0.443657,0.4015579 z m 0.06801,1.2467724 c 0,0.2396394 -0.242878,0.4080347 -0.508424,0.4080347 -0.2785,0 -0.511663,-0.200779 -0.511663,-0.4695637 0,-0.1878254 0.103628,-0.3950811 0.37889,-0.5472845 l 0.398319,0.2525928 c 0.09067,0.061529 0.242878,0.1586802 0.242878,0.3562207 z"
       style="fill:#000000;font-size:3.23837px;line-height:1.25;font-family:'Latin Modern Math';-inkscape-font-specification:'Latin Modern Math';letter-spacing:0.211667px;word-spacing:0px;stroke-width:0.0809593"
       id="path86" />
    <path
       d="m 39.56926,11.700442 v -0.10039 h -0.323837 v -1.473458 c 0,-0.06477 0,-0.0842 -0.05181,-0.0842 -0.02915,0 -0.03886,0 -0.06477,0.03886 l -0.994179,1.518795 v 0.10039 h 0.861406 v 0.281738 c 0,0.116581 -0.0065,0.152203 -0.246116,0.152203 h -0.06801 v 0.10039 c 0.132773,-0.0097 0.301169,-0.0097 0.43718,-0.0097 0.136012,0 0.307645,0 0.440418,0.0097 v -0.10039 h -0.068 c -0.23964,0 -0.246116,-0.03562 -0.246116,-0.152203 v -0.281738 z m -0.553762,-0.10039 h -0.790162 l 0.790162,-1.207912 z"
       style="fill:#000000;font-size:3.23837px;line-height:1.25;font-family:'Latin Modern Math';-inkscape-font-specification:'Latin Modern Math';letter-spacing:0.211667px;word-spacing:0px;stroke-width:0.0809593"
       id="path89" />
    <path
       d="m 41.195786,18.103924 v -0.10039 h -0.103628 c -0.291453,0 -0.301168,-0.03562 -0.301168,-0.155441 v -1.816726 c 0,-0.07772 0,-0.0842 -0.07448,-0.0842 -0.200779,0.207256 -0.485755,0.207256 -0.589383,0.207256 v 0.10039 c 0.06477,0 0.255831,0 0.424227,-0.0842 v 1.677476 c 0,0.116581 -0.0097,0.155441 -0.301169,0.155441 h -0.103628 v 0.10039 c 0.113343,-0.0097 0.395081,-0.0097 0.524616,-0.0097 0.129535,0 0.411273,0 0.524616,0.0097 z"
       style="fill:#000000;font-size:3.23837px;line-height:1.25;font-family:'Latin Modern Math';-inkscape-font-specification:'Latin Modern Math';letter-spacing:0.211667px;word-spacing:0px;stroke-width:0.0809593"
       id="path92" />
    <path
       d="m 43.14969,17.550163 c 0,-0.265547 -0.204017,-0.51814 -0.540808,-0.586145 0.265547,-0.08744 0.453372,-0.314122 0.453372,-0.569954 0,-0.265546 -0.284976,-0.446895 -0.59586,-0.446895 -0.327075,0 -0.573191,0.194303 -0.573191,0.440419 0,0.106866 0.07124,0.168395 0.165156,0.168395 0.10039,0 0.165157,-0.07124 0.165157,-0.165157 0,-0.161918 -0.152203,-0.161918 -0.200779,-0.161918 0.10039,-0.158681 0.314122,-0.200779 0.430704,-0.200779 0.132773,0 0.310883,0.07124 0.310883,0.362697 0,0.03886 -0.0065,0.226686 -0.09067,0.369174 -0.09715,0.155442 -0.207256,0.165157 -0.288215,0.168396 -0.02591,0.0032 -0.103628,0.0097 -0.126297,0.0097 -0.02591,0.0032 -0.04857,0.0065 -0.04857,0.03886 0,0.03562 0.02267,0.03562 0.07772,0.03562 h 0.142488 c 0.265546,0 0.385366,0.220209 0.385366,0.53757 0,0.440418 -0.223448,0.534331 -0.365936,0.534331 -0.13925,0 -0.382128,-0.05505 -0.49547,-0.246117 0.113342,0.01619 0.213732,-0.05505 0.213732,-0.17811 0,-0.116581 -0.08744,-0.181349 -0.181349,-0.181349 -0.07772,0 -0.181348,0.04534 -0.181348,0.187826 0,0.294692 0.301168,0.508424 0.65415,0.508424 0.395081,0 0.689773,-0.294692 0.689773,-0.625005 z"
       style="fill:#000000;font-size:3.23837px;line-height:1.25;font-family:'Latin Modern Math';-inkscape-font-specification:'Latin Modern Math';letter-spacing:0.211667px;word-spacing:0px;stroke-width:0.0809593"
       id="path94" />
    <path
       d="m 43.058609,22.853811 c 0,-0.411273 -0.288215,-0.722156 -0.647674,-0.722156 -0.220209,0 -0.340028,0.165157 -0.404796,0.320598 v -0.07772 c 0,-0.819307 0.401558,-0.935889 0.566715,-0.935889 0.07772,0 0.213732,0.01943 0.284976,0.129535 -0.04857,0 -0.17811,0 -0.17811,0.145727 0,0.100389 0.07772,0.148965 0.148965,0.148965 0.05181,0 0.148965,-0.02914 0.148965,-0.155442 0,-0.194302 -0.142488,-0.349744 -0.411273,-0.349744 -0.414511,0 -0.851691,0.41775 -0.851691,1.13343 0,0.864645 0.375651,1.094569 0.676819,1.094569 0.359459,0 0.667104,-0.304407 0.667104,-0.731872 z m -0.291453,-0.0032 c 0,0.155442 0,0.31736 -0.05505,0.433941 -0.09715,0.194303 -0.246116,0.210494 -0.320599,0.210494 -0.204017,0 -0.301168,-0.194302 -0.320598,-0.242877 -0.05829,-0.152204 -0.05829,-0.411273 -0.05829,-0.469564 0,-0.252593 0.103628,-0.57643 0.395081,-0.57643 0.05181,0 0.200779,0 0.301168,0.200779 0.05829,0.11982 0.05829,0.284977 0.05829,0.443657 z"
       style="fill:#000000;font-size:3.23837px;line-height:1.25;font-family:'Latin Modern Math';-inkscape-font-specification:'Latin Modern Math';letter-spacing:0.211667px;word-spacing:0px;stroke-width:0.0809593"
       id="path97" />
    <path
       d="m 41.02868,29.470404 v -0.10039 h -0.103628 c -0.291454,0 -0.301169,-0.03562 -0.301169,-0.155442 v -1.816725 c 0,-0.07772 0,-0.0842 -0.07448,-0.0842 -0.200779,0.207256 -0.485756,0.207256 -0.589384,0.207256 v 0.100389 c 0.06477,0 0.255832,0 0.424227,-0.0842 v 1.677475 c 0,0.116582 -0.0097,0.155442 -0.301168,0.155442 H 39.97945 v 0.10039 c 0.113343,-0.0097 0.395081,-0.0097 0.524616,-0.0097 0.129534,0 0.411273,0 0.524616,0.0097 z"
       style="fill:#000000;font-size:3.23837px;line-height:1.25;font-family:'Latin Modern Math';-inkscape-font-specification:'Latin Modern Math';letter-spacing:0.211667px;word-spacing:0px;stroke-width:0.0809593"
       id="path100" />
    <path
       d="m 42.992299,28.434125 c 0,-0.259069 -0.01619,-0.518139 -0.129535,-0.757778 -0.148965,-0.310884 -0.414512,-0.362698 -0.550523,-0.362698 -0.194302,0 -0.430703,0.0842 -0.563477,0.385366 -0.103627,0.223448 -0.119819,0.476041 -0.119819,0.73511 0,0.242878 0.01295,0.534331 0.145726,0.780447 0.13925,0.262308 0.375651,0.327076 0.534331,0.327076 0.174872,0 0.420989,-0.06801 0.563477,-0.375651 0.103628,-0.223448 0.11982,-0.47604 0.11982,-0.731872 z m -0.268785,-0.03886 c 0,0.242878 0,0.463087 -0.03562,0.670342 -0.04858,0.307646 -0.233163,0.404797 -0.37889,0.404797 -0.126296,0 -0.31736,-0.08096 -0.37565,-0.391843 -0.03562,-0.194302 -0.03562,-0.492232 -0.03562,-0.683296 0,-0.207256 0,-0.420988 0.02591,-0.59586 0.06153,-0.385366 0.304407,-0.414512 0.385366,-0.414512 0.106867,0 0.320599,0.05829 0.382128,0.37889 0.03238,0.181348 0.03238,0.427465 0.03238,0.631482 z"
       style="fill:#000000;font-size:3.23837px;line-height:1.25;font-family:'Latin Modern Math';-inkscape-font-specification:'Latin Modern Math';letter-spacing:0.211667px;word-spacing:0px;stroke-width:0.0809593"
       id="path102" />
    <path
       d="m 38.35645,34.942238 v -0.10039 h -0.103628 c -0.291453,0 -0.301168,-0.03562 -0.301168,-0.155441 v -1.816726 c 0,-0.07772 0,-0.0842 -0.07448,-0.0842 -0.200779,0.207256 -0.485755,0.207256 -0.589383,0.207256 v 0.10039 c 0.06477,0 0.255831,0 0.424226,-0.0842 v 1.677476 c 0,0.116581 -0.0097,0.155441 -0.301168,0.155441 h -0.103628 v 0.10039 c 0.113343,-0.0097 0.395081,-0.0097 0.524616,-0.0097 0.129535,0 0.411273,0 0.524616,0.0097 z"
       style="fill:#000000;font-size:3.23837px;line-height:1.25;font-family:'Latin Modern Math';-inkscape-font-specification:'Latin Modern Math';letter-spacing:0.211667px;word-spacing:0px;stroke-width:0.0809593"
       id="path105" />
    <path
       d="m 40.284447,34.291325 c 0,-0.385366 -0.265547,-0.709203 -0.615291,-0.709203 -0.155441,0 -0.294691,0.05181 -0.411273,0.165157 v -0.631482 c 0.06477,0.01943 0.171634,0.0421 0.275262,0.0421 0.398319,0 0.625005,-0.294692 0.625005,-0.33679 0,-0.01943 -0.0097,-0.03562 -0.03238,-0.03562 0,0 -0.0097,0 -0.02591,0.0097 -0.06477,0.02915 -0.223448,0.09391 -0.440419,0.09391 -0.129535,0 -0.2785,-0.02267 -0.430703,-0.09067 -0.02591,-0.0097 -0.03886,-0.0097 -0.03886,-0.0097 -0.03238,0 -0.03238,0.02591 -0.03238,0.07772 V 33.825 c 0,0.05829 0,0.0842 0.04534,0.0842 0.02267,0 0.02914,-0.0097 0.0421,-0.02915 0.03562,-0.05181 0.155442,-0.226686 0.41775,-0.226686 0.168395,0 0.249354,0.148965 0.275261,0.207255 0.05181,0.11982 0.05829,0.246116 0.05829,0.408035 0,0.113343 0,0.307645 -0.07772,0.443657 -0.07772,0.126296 -0.197541,0.210494 -0.346506,0.210494 -0.236401,0 -0.420988,-0.171634 -0.47604,-0.362698 0.0097,0.0032 0.01943,0.0065 0.05505,0.0065 0.106866,0 0.161919,-0.08096 0.161919,-0.15868 0,-0.07772 -0.05505,-0.15868 -0.161919,-0.15868 -0.04534,0 -0.15868,0.02267 -0.15868,0.171633 0,0.2785 0.223448,0.592622 0.586145,0.592622 0.375651,0 0.705965,-0.310884 0.705965,-0.722157 z"
       style="fill:#000000;font-size:3.23837px;line-height:1.25;font-family:'Latin Modern Math';-inkscape-font-specification:'Latin Modern Math';letter-spacing:0.211667px;word-spacing:0px;stroke-width:0.0809593"
       id="path107" />
    <path
       d="m 34.840198,39.096523 h -0.08096 c -0.01619,0.09715 -0.03886,0.23964 -0.07124,0.288215 -0.02267,0.02591 -0.236401,0.02591 -0.307645,0.02591 h -0.582907 l 0.343268,-0.333552 c 0.505185,-0.446895 0.699488,-0.621767 0.699488,-0.945604 0,-0.369174 -0.291454,-0.628244 -0.686535,-0.628244 -0.365936,0 -0.605575,0.297931 -0.605575,0.586145 0,0.181349 0.161918,0.181349 0.171634,0.181349 0.05505,0 0.168395,-0.03886 0.168395,-0.171633 0,-0.0842 -0.05829,-0.168396 -0.171634,-0.168396 -0.02591,0 -0.03238,0 -0.0421,0.0032 0.07448,-0.210494 0.249355,-0.330314 0.43718,-0.330314 0.294692,0 0.433942,0.262308 0.433942,0.527854 0,0.25907 -0.161919,0.514901 -0.340029,0.71568 l -0.62177,0.693047 c -0.03562,0.03562 -0.03562,0.0421 -0.03562,0.11982 h 1.201435 z"
       style="fill:#000000;font-size:3.23837px;line-height:1.25;font-family:'Latin Modern Math';-inkscape-font-specification:'Latin Modern Math';letter-spacing:0.211667px;word-spacing:0px;stroke-width:0.0809593"
       id="path110" />
    <path
       d="m 28.057086,42.512074 v -0.10039 h -0.103628 c -0.291453,0 -0.301169,-0.03562 -0.301169,-0.155442 v -1.816725 c 0,-0.07772 0,-0.0842 -0.07448,-0.0842 -0.200779,0.207256 -0.485756,0.207256 -0.589383,0.207256 v 0.100389 c 0.06477,0 0.255831,0 0.424226,-0.0842 v 1.677475 c 0,0.116582 -0.0097,0.155442 -0.301168,0.155442 h -0.103628 v 0.10039 c 0.113343,-0.0097 0.395081,-0.0097 0.524616,-0.0097 0.129535,0 0.411273,0 0.524616,0.0097 z"
       style="fill:#000000;font-size:3.23837px;line-height:1.25;font-family:'Latin Modern Math';-inkscape-font-specification:'Latin Modern Math';letter-spacing:0.211667px;word-spacing:0px;stroke-width:0.0809593"
       id="path113" />
    <path
       d="M 30.101664,40.426563 H 29.31474 c -0.395081,0 -0.401558,-0.0421 -0.414511,-0.103628 h -0.08096 l -0.106866,0.667105 h 0.08096 c 0.0097,-0.05181 0.03886,-0.255832 0.08096,-0.294692 0.02267,-0.01943 0.275261,-0.01943 0.31736,-0.01943 h 0.670343 l -0.362698,0.511662 c -0.291453,0.43718 -0.398319,0.887314 -0.398319,1.217627 0,0.03238 0,0.178111 0.148965,0.178111 0.148965,0 0.148965,-0.145727 0.148965,-0.178111 V 42.24005 c 0,-0.17811 0.0097,-0.35622 0.03562,-0.531092 0.01295,-0.07448 0.05829,-0.352983 0.200779,-0.553761 l 0.43718,-0.615291 c 0.02914,-0.03886 0.02914,-0.04534 0.02914,-0.113343 z"
       style="fill:#000000;font-size:3.23837px;line-height:1.25;font-family:'Latin Modern Math';-inkscape-font-specification:'Latin Modern Math';letter-spacing:0.211667px;word-spacing:0px;stroke-width:0.0809593"
       id="path115" />
    <path
       d="m 23.122872,42.896415 c 0,-0.265546 -0.204018,-0.518139 -0.540808,-0.586145 0.265546,-0.08744 0.453372,-0.314122 0.453372,-0.569953 0,-0.265546 -0.284977,-0.446895 -0.59586,-0.446895 -0.327076,0 -0.573192,0.194302 -0.573192,0.440418 0,0.106866 0.07124,0.168395 0.165157,0.168395 0.10039,0 0.165157,-0.07124 0.165157,-0.165156 0,-0.161919 -0.152203,-0.161919 -0.200779,-0.161919 0.100389,-0.15868 0.314122,-0.200779 0.430703,-0.200779 0.132773,0 0.310884,0.07124 0.310884,0.362698 0,0.03886 -0.0065,0.226685 -0.09068,0.369174 -0.09715,0.155441 -0.207255,0.165157 -0.288215,0.168395 -0.02591,0.0032 -0.103627,0.0097 -0.126296,0.0097 -0.02591,0.0032 -0.04858,0.0065 -0.04858,0.03886 0,0.03562 0.02267,0.03562 0.07772,0.03562 h 0.142489 c 0.265546,0 0.385366,0.220209 0.385366,0.537569 0,0.440418 -0.223448,0.534331 -0.365936,0.534331 -0.13925,0 -0.382128,-0.05505 -0.495471,-0.246116 0.113343,0.01619 0.213733,-0.05505 0.213733,-0.17811 0,-0.116582 -0.08744,-0.181349 -0.181349,-0.181349 -0.07772,0 -0.181349,0.04534 -0.181349,0.187825 0,0.294692 0.301169,0.508424 0.654151,0.508424 0.395081,0 0.689773,-0.294691 0.689773,-0.625005 z"
       style="fill:#000000;font-size:3.23837px;line-height:1.25;font-family:'Latin Modern Math';-inkscape-font-specification:'Latin Modern Math';letter-spacing:0.211667px;word-spacing:0px;stroke-width:0.0809593"
       id="path118" />
    <path
       d="m 16.207312,42.587517 v -0.10039 h -0.103628 c -0.291453,0 -0.301168,-0.03562 -0.301168,-0.155441 V 40.51496 c 0,-0.07772 0,-0.0842 -0.07448,-0.0842 -0.200779,0.207256 -0.485756,0.207256 -0.589384,0.207256 v 0.10039 c 0.06477,0 0.255831,0 0.424227,-0.0842 v 1.677476 c 0,0.116581 -0.0097,0.155441 -0.301169,0.155441 h -0.10363 v 0.10039 c 0.113343,-0.0097 0.395082,-0.0097 0.524616,-0.0097 0.129535,0 0.411273,0 0.524616,0.0097 z"
       style="fill:#000000;font-size:3.23837px;line-height:1.25;font-family:'Latin Modern Math';-inkscape-font-specification:'Latin Modern Math';letter-spacing:0.211667px;word-spacing:0px;stroke-width:0.0809593"
       id="path121" />
    <path
       d="m 18.161216,41.522093 c 0,-0.871121 -0.372412,-1.091331 -0.660627,-1.091331 -0.178111,0 -0.336791,0.05829 -0.476041,0.204018 -0.132773,0.145726 -0.207255,0.281738 -0.207255,0.524616 0,0.404796 0.284976,0.722156 0.647674,0.722156 0.19754,0 0.330313,-0.136011 0.404796,-0.323837 v 0.103628 c 0,0.757779 -0.336791,0.906744 -0.524616,0.906744 -0.05505,0 -0.229924,-0.0065 -0.31736,-0.116582 0.142488,0 0.168395,-0.09391 0.168395,-0.148965 0,-0.100389 -0.07772,-0.148965 -0.148965,-0.148965 -0.05181,0 -0.148965,0.02915 -0.148965,0.155442 0,0.216971 0.174872,0.349744 0.450133,0.349744 0.41775,0 0.812831,-0.440418 0.812831,-1.136668 z m -0.29793,-0.29793 c 0,0.268785 -0.110104,0.582907 -0.395081,0.582907 -0.05181,0 -0.200779,0 -0.301168,-0.204018 -0.05829,-0.119819 -0.05829,-0.281738 -0.05829,-0.440418 0,-0.174872 0,-0.327075 0.06801,-0.446895 0.08744,-0.161919 0.210494,-0.204017 0.323837,-0.204017 0.148965,0 0.255831,0.110104 0.310883,0.255831 0.03886,0.103628 0.05181,0.307645 0.05181,0.45661 z"
       style="fill:#000000;font-size:3.23837px;line-height:1.25;font-family:'Latin Modern Math';-inkscape-font-specification:'Latin Modern Math';letter-spacing:0.211667px;word-spacing:0px;stroke-width:0.0809593"
       id="path123" />
    <path
       d="m 11.879801,37.892513 h -0.786924 c -0.395081,0 -0.401558,-0.0421 -0.414511,-0.103628 h -0.08096 L 10.49054,38.45599 h 0.08096 c 0.0097,-0.05181 0.03886,-0.255832 0.08096,-0.294692 0.02267,-0.01943 0.275261,-0.01943 0.31736,-0.01943 h 0.670343 l -0.362698,0.511662 c -0.291453,0.43718 -0.398319,0.887314 -0.398319,1.217627 0,0.03238 0,0.178111 0.148965,0.178111 0.148965,0 0.148965,-0.145727 0.148965,-0.178111 V 39.706 c 0,-0.17811 0.0097,-0.35622 0.03562,-0.531092 0.01295,-0.07448 0.05829,-0.352983 0.200779,-0.553761 l 0.43718,-0.615291 c 0.02914,-0.03886 0.02914,-0.04534 0.02914,-0.113343 z"
       style="fill:#000000;font-size:3.23837px;line-height:1.25;font-family:'Latin Modern Math';-inkscape-font-specification:'Latin Modern Math';letter-spacing:0.211667px;word-spacing:0px;stroke-width:0.0809593"
       id="path126" />
    <path
       d="m 5.8023407,35.124817 v -0.10039 H 5.6987128 c -0.2914533,0 -0.3011684,-0.03562 -0.3011684,-0.155441 V 33.05226 c 0,-0.07772 0,-0.0842 -0.074483,-0.0842 -0.2007789,0.207255 -0.4857555,0.207255 -0.5893833,0.207255 v 0.10039 c 0.064767,0 0.2558312,0 0.4242264,-0.0842 v 1.677476 c 0,0.116581 -0.00972,0.155441 -0.3011684,0.155441 H 4.7531088 v 0.10039 c 0.1133429,-0.0097 0.3950811,-0.0097 0.5246159,-0.0097 0.1295348,0 0.411273,0 0.524616,0.0097 z"
       style="fill:#000000;font-size:3.23837px;line-height:1.25;font-family:'Latin Modern Math';-inkscape-font-specification:'Latin Modern Math';letter-spacing:0.211667px;word-spacing:0px;stroke-width:0.0809593"
       id="path129" />
    <path
       d="m 7.7562446,34.464189 c 0,-0.411273 -0.288215,-0.722156 -0.647674,-0.722156 -0.2202092,0 -0.3400289,0.165157 -0.4047963,0.320599 v -0.07772 c 0,-0.819308 0.4015579,-0.935889 0.5667148,-0.935889 0.077721,0 0.2137324,0.01943 0.2849765,0.129535 -0.048576,0 -0.1781103,0 -0.1781103,0.145726 0,0.10039 0.077721,0.148965 0.148965,0.148965 0.051814,0 0.148965,-0.02914 0.148965,-0.155442 0,-0.194302 -0.1424883,-0.349743 -0.411273,-0.349743 -0.4145113,0 -0.8516913,0.417749 -0.8516913,1.133429 0,0.864645 0.3756509,1.094569 0.6768193,1.094569 0.3594591,0 0.6671043,-0.304407 0.6671043,-0.731873 z m -0.2914533,-0.0032 c 0,0.155442 0,0.31736 -0.055052,0.433942 -0.097151,0.194302 -0.2461161,0.210494 -0.3205987,0.210494 -0.2040173,0 -0.3011684,-0.194303 -0.3205986,-0.242878 -0.058291,-0.152203 -0.058291,-0.411273 -0.058291,-0.469564 0,-0.252593 0.1036278,-0.57643 0.3950811,-0.57643 0.051814,0 0.2007789,0 0.3011684,0.200779 0.058291,0.11982 0.058291,0.284977 0.058291,0.443657 z"
       style="fill:#000000;font-size:3.23837px;line-height:1.25;font-family:'Latin Modern Math';-inkscape-font-specification:'Latin Modern Math';letter-spacing:0.211667px;word-spacing:0px;stroke-width:0.0809593"
       id="path131" />
    <path
       d="m 4.1153146,28.982579 c 0,-0.116582 -0.035622,-0.262308 -0.1586801,-0.39832 -0.061529,-0.06801 -0.113343,-0.100389 -0.3205986,-0.229924 0.2331626,-0.11982 0.3918427,-0.288215 0.3918427,-0.501948 0,-0.29793 -0.2882149,-0.482517 -0.5829066,-0.482517 -0.323837,0 -0.5861449,0.23964 -0.5861449,0.540808 0,0.05829 0.00648,0.204017 0.1424883,0.356221 0.035622,0.03886 0.1554417,0.119819 0.236401,0.174872 -0.1878255,0.09391 -0.4663253,0.275261 -0.4663253,0.59586 0,0.343267 0.3303137,0.560238 0.6703426,0.560238 0.3659358,0 0.6735809,-0.268785 0.6735809,-0.61529 z M 3.8853904,27.852387 c 0,0.184588 -0.1262965,0.340029 -0.3205987,0.453372 L 3.1632339,28.04669 C 3.0142688,27.94954 3.0013154,27.839434 3.0013154,27.784382 c 0,-0.197541 0.210494,-0.333552 0.4404183,-0.333552 0.236401,0 0.4436567,0.168395 0.4436567,0.401557 z m 0.068006,1.246773 c 0,0.239639 -0.2428777,0.408034 -0.5084241,0.408034 -0.2784998,0 -0.5116624,-0.200778 -0.5116624,-0.469563 0,-0.187826 0.1036278,-0.395081 0.3788893,-0.547285 l 0.3983195,0.252593 c 0.090674,0.06153 0.2428777,0.15868 0.2428777,0.356221 z"
       style="fill:#000000;font-size:3.23837px;line-height:1.25;font-family:'Latin Modern Math';-inkscape-font-specification:'Latin Modern Math';letter-spacing:0.211667px;word-spacing:0px;stroke-width:0.0809593"
       id="path134" />
    <path
       d="M 2.1340811,23.55006 V 23.449671 H 2.0304533 c -0.2914533,0 -0.3011684,-0.03562 -0.3011684,-0.155442 v -1.816725 c 0,-0.07772 0,-0.0842 -0.074483,-0.0842 -0.200779,0.207256 -0.4857555,0.207256 -0.5893834,0.207256 v 0.100389 c 0.064767,0 0.2558312,0 0.4242265,-0.0842 v 1.677476 c 0,0.116581 -0.00972,0.155442 -0.3011684,0.155442 H 1.0848492 v 0.100389 c 0.113343,-0.0097 0.3950812,-0.0097 0.524616,-0.0097 0.1295348,0 0.411273,0 0.5246159,0.0097 z"
       style="fill:#000000;font-size:3.23837px;line-height:1.25;font-family:'Latin Modern Math';-inkscape-font-specification:'Latin Modern Math';letter-spacing:0.211667px;word-spacing:0px;stroke-width:0.0809593"
       id="path137" />
    <path
       d="M 3.9649269,23.55006 V 23.449671 H 3.8612991 c -0.2914533,0 -0.3011684,-0.03562 -0.3011684,-0.155442 v -1.816725 c 0,-0.07772 0,-0.0842 -0.074483,-0.0842 -0.200779,0.207256 -0.4857555,0.207256 -0.5893833,0.207256 v 0.100389 c 0.064767,0 0.2558312,0 0.4242264,-0.0842 v 1.677476 c 0,0.116581 -0.00972,0.155442 -0.3011684,0.155442 H 2.9156951 v 0.100389 c 0.1133429,-0.0097 0.3950811,-0.0097 0.5246159,-0.0097 0.1295348,0 0.411273,0 0.5246159,0.0097 z"
       style="fill:#000000;font-size:3.23837px;line-height:1.25;font-family:'Latin Modern Math';-inkscape-font-specification:'Latin Modern Math';letter-spacing:0.211667px;word-spacing:0px;stroke-width:0.0809593"
       id="path139" />
    <path
       d="M 2.8726182,17.899824 V 17.799435 H 2.7689904 c -0.2914533,0 -0.3011684,-0.03562 -0.3011684,-0.155442 v -1.816726 c 0,-0.07772 0,-0.0842 -0.074482,-0.0842 -0.200779,0.207255 -0.4857555,0.207255 -0.5893833,0.207255 v 0.10039 c 0.064767,0 0.2558312,0 0.4242264,-0.0842 v 1.677476 c 0,0.116581 -0.00972,0.155442 -0.3011684,0.155442 H 1.8233864 v 0.100389 c 0.1133429,-0.0097 0.3950811,-0.0097 0.5246159,-0.0097 0.1295348,0 0.411273,0 0.5246159,0.0097 z"
       style="fill:#000000;font-size:3.23837px;line-height:1.25;font-family:'Latin Modern Math';-inkscape-font-specification:'Latin Modern Math';letter-spacing:0.211667px;word-spacing:0px;stroke-width:0.0809593"
       id="path142" />
    <path
       d="m 4.8718593,17.365493 v -0.100389 h -0.323837 v -1.473459 c 0,-0.06477 0,-0.0842 -0.051814,-0.0842 -0.029145,0 -0.03886,0 -0.064767,0.03886 l -0.9941796,1.518796 v 0.100389 h 0.8614064 v 0.281738 c 0,0.116582 -0.00648,0.152204 -0.2461161,0.152204 H 3.984546 v 0.100389 c 0.1327732,-0.0097 0.3011684,-0.0097 0.43718,-0.0097 0.1360115,0 0.3076451,0 0.4404183,0.0097 v -0.100389 h -0.068006 c -0.2396393,0 -0.2461161,-0.03562 -0.2461161,-0.152204 V 17.365493 Z M 4.318098,17.265104 H 3.5279358 L 4.318098,16.057192 Z"
       style="fill:#000000;font-size:3.23837px;line-height:1.25;font-family:'Latin Modern Math';-inkscape-font-specification:'Latin Modern Math';letter-spacing:0.211667px;word-spacing:0px;stroke-width:0.0809593"
       id="path144" />
    <path
       d="m 6.8874234,10.879925 c 0,-0.871121 -0.3724125,-1.0913306 -0.6606275,-1.0913306 -0.1781103,0 -0.3367904,0.058291 -0.4760403,0.2040173 -0.1327732,0.1457263 -0.2072557,0.2817383 -0.2072557,0.5246163 0,0.404796 0.2849765,0.722156 0.647674,0.722156 0.1975405,0 0.3303137,-0.136011 0.4047962,-0.323837 v 0.103628 c 0,0.757779 -0.3367905,0.906744 -0.5246159,0.906744 -0.055052,0 -0.2299243,-0.0065 -0.3173603,-0.116582 0.1424883,0 0.1683953,-0.09391 0.1683953,-0.148965 0,-0.100389 -0.077721,-0.148965 -0.1489651,-0.148965 -0.051814,0 -0.148965,0.02914 -0.148965,0.155442 0,0.216971 0.174872,0.349744 0.4501335,0.349744 0.4177497,0 0.8128308,-0.440418 0.8128308,-1.136668 z m -0.29793,-0.29793 c 0,0.268785 -0.1101046,0.582907 -0.3950812,0.582907 -0.051814,0 -0.2007789,0 -0.3011684,-0.204018 -0.058291,-0.119819 -0.058291,-0.281738 -0.058291,-0.440418 0,-0.174872 0,-0.327075 0.068006,-0.446895 0.087436,-0.1619186 0.2104941,-0.2040174 0.323837,-0.2040174 0.1489651,0 0.2558313,0.1101046 0.3108836,0.2558314 0.03886,0.103628 0.051814,0.307645 0.051814,0.45661 z"
       style="fill:#000000;font-size:3.23837px;line-height:1.25;font-family:'Latin Modern Math';-inkscape-font-specification:'Latin Modern Math';letter-spacing:0.211667px;word-spacing:0px;stroke-width:0.0809593"
       id="path147" />
    <path
       d="M 10.596586,7.2126546 V 7.1122651 h -0.103628 c -0.291453,0 -0.301168,-0.035622 -0.301168,-0.1554417 V 5.1400978 c 0,-0.077721 0,-0.084198 -0.07448,-0.084198 C 9.9165282,5.2631559 9.6315517,5.2631559 9.5279238,5.2631559 v 0.1003895 c 0.064767,0 0.2558313,0 0.4242265,-0.084198 v 1.6774757 c 0,0.1165813 -0.00972,0.1554417 -0.3011684,0.1554417 H 9.547354 v 0.1003895 c 0.113343,-0.00972 0.3950812,-0.00972 0.524616,-0.00972 0.129535,0 0.411273,0 0.524616,0.00972 z"
       style="fill:#000000;font-size:3.23837px;line-height:1.25;font-family:'Latin Modern Math';-inkscape-font-specification:'Latin Modern Math';letter-spacing:0.211667px;word-spacing:0px;stroke-width:0.0809593"
       id="path150" />
    <path
       d="m 12.524583,6.6491782 h -0.08096 c -0.01619,0.097151 -0.03886,0.2396394 -0.07124,0.2882149 -0.02267,0.025907 -0.236401,0.025907 -0.307645,0.025907 h -0.58291 L 11.825095,6.629748 c 0.505186,-0.4468951 0.699488,-0.621767 0.699488,-0.945604 0,-0.3691742 -0.291453,-0.6282438 -0.686535,-0.6282438 -0.365935,0 -0.605575,0.29793 -0.605575,0.586145 0,0.1813487 0.161919,0.1813487 0.171634,0.1813487 0.05505,0 0.168395,-0.038861 0.168395,-0.1716336 0,-0.084198 -0.05829,-0.1683953 -0.171634,-0.1683953 -0.02591,0 -0.03238,0 -0.0421,0.00324 0.07448,-0.210494 0.249354,-0.3303137 0.43718,-0.3303137 0.294691,0 0.433941,0.2623079 0.433941,0.5278543 0,0.2590696 -0.161918,0.5149008 -0.340029,0.7156797 l -0.621767,0.6930112 c -0.03562,0.035622 -0.03562,0.042099 -0.03562,0.1198197 h 1.201435 z"
       style="fill:#000000;font-size:3.23837px;line-height:1.25;font-family:'Latin Modern Math';-inkscape-font-specification:'Latin Modern Math';letter-spacing:0.211667px;word-spacing:0px;stroke-width:0.0809593"
       id="path152" />
    <path
       d="m 17.297574,3.7899665 c 0,-0.385366 -0.265546,-0.709203 -0.61529,-0.709203 -0.155442,0 -0.294692,0.051814 -0.411273,0.1651569 V 2.6144382 c 0.06477,0.01943 0.171633,0.042099 0.275261,0.042099 0.39832,0 0.625006,-0.2946916 0.625006,-0.3367904 0,-0.01943 -0.0097,-0.035622 -0.03238,-0.035622 0,0 -0.0097,0 -0.02591,0.00972 -0.06477,0.029145 -0.223448,0.093913 -0.440418,0.093913 -0.129535,0 -0.2785,-0.022669 -0.430704,-0.090674 -0.02591,-0.00972 -0.03886,-0.00972 -0.03886,-0.00972 -0.03238,0 -0.03238,0.025907 -0.03238,0.077721 v 0.9585575 c 0,0.058291 0,0.084198 0.04534,0.084198 0.02267,0 0.02915,-0.00972 0.0421,-0.029145 0.03562,-0.051814 0.155442,-0.2266859 0.41775,-0.2266859 0.168395,0 0.249354,0.148965 0.275261,0.2072557 0.05181,0.1198197 0.05829,0.2461161 0.05829,0.4080346 0,0.113343 0,0.3076452 -0.07772,0.4436567 -0.07772,0.1262964 -0.19754,0.210494 -0.346505,0.210494 -0.236401,0 -0.420988,-0.1716336 -0.476041,-0.3626974 0.0097,0.00324 0.01943,0.00648 0.05505,0.00648 0.106866,0 0.161918,-0.080959 0.161918,-0.1586802 0,-0.077721 -0.05505,-0.1586801 -0.161918,-0.1586801 -0.04534,0 -0.158681,0.022669 -0.158681,0.1716336 0,0.2784998 0.223448,0.5926217 0.586145,0.5926217 0.375651,0 0.705965,-0.3108835 0.705965,-0.7221565 z"
       style="fill:#000000;font-size:3.23837px;line-height:1.25;font-family:'Latin Modern Math';-inkscape-font-specification:'Latin Modern Math';letter-spacing:0.211667px;word-spacing:0px;stroke-width:0.0809593"
       id="path155" />
  </g>
</svg>
